<svg xmlns="http://www.w3.org/2000/svg" xmlns:xlink="http://www.w3.org/1999/xlink" width="500" zoomAndPan="magnify" viewBox="0 0 375 374.999991" height="500" preserveAspectRatio="xMidYMid meet" version="1.0"><defs><g/></defs><g fill="#ffffff" fill-opacity="1"><g transform="translate(42.819793, 207.590602)"><g><path d="M -0.703125 -28.328125 C -0.628906 -29.347656 -0.335938 -30.15625 0.171875 -30.75 C 0.679688 -31.351562 1.257812 -31.707031 1.90625 -31.8125 C 2.53125 -31.914062 3.164062 -31.789062 3.8125 -31.4375 C 4.46875 -31.09375 5.007812 -30.472656 5.4375 -29.578125 C 5.539062 -28.890625 5.648438 -28.195312 5.765625 -27.5 C 5.878906 -26.8125 5.992188 -26.128906 6.109375 -25.453125 C 6.273438 -24.441406 6.445312 -23.425781 6.625 -22.40625 C 6.800781 -21.382812 6.988281 -20.359375 7.1875 -19.328125 C 7.582031 -20.421875 7.992188 -21.578125 8.421875 -22.796875 C 8.847656 -24.023438 9.210938 -25.242188 9.515625 -26.453125 C 9.828125 -27.660156 9.976562 -28.75 9.96875 -29.71875 C 10.03125 -30.757812 10.328125 -31.570312 10.859375 -32.15625 C 11.390625 -32.75 11.976562 -33.097656 12.625 -33.203125 C 13.425781 -33.335938 14.175781 -33.125 14.875 -32.5625 C 15.570312 -32.007812 16.019531 -31.125 16.21875 -29.90625 C 16.226562 -28.351562 16.019531 -26.789062 15.59375 -25.21875 C 15.175781 -23.65625 14.722656 -22.117188 14.234375 -20.609375 C 14.753906 -20.035156 15.304688 -19.207031 15.890625 -18.125 C 16.484375 -17.050781 17.125 -15.941406 17.8125 -14.796875 C 18.5 -13.648438 19.234375 -12.613281 20.015625 -11.6875 C 20.804688 -10.757812 21.640625 -10.160156 22.515625 -9.890625 C 23.160156 -9.554688 23.671875 -9.15625 24.046875 -8.6875 C 24.421875 -8.226562 24.644531 -7.742188 24.71875 -7.234375 C 24.851562 -6.460938 24.671875 -5.738281 24.171875 -5.0625 C 23.671875 -4.382812 22.898438 -3.960938 21.859375 -3.796875 C 20.953125 -3.648438 20.03125 -3.847656 19.09375 -4.390625 C 18.164062 -4.941406 17.257812 -5.722656 16.375 -6.734375 C 15.5 -7.742188 14.644531 -8.878906 13.8125 -10.140625 C 12.988281 -11.410156 12.21875 -12.664062 11.5 -13.90625 C 11.007812 -13.164062 10.351562 -12.726562 9.53125 -12.59375 C 9.320312 -12.5625 9.15625 -12.550781 9.03125 -12.5625 C 9.28125 -11.5625 9.546875 -10.632812 9.828125 -9.78125 C 10.117188 -8.9375 10.390625 -8.070312 10.640625 -7.1875 C 10.898438 -6.300781 11.125 -5.28125 11.3125 -4.125 C 11.425781 -3.382812 11.25 -2.6875 10.78125 -2.03125 C 10.320312 -1.382812 9.648438 -0.988281 8.765625 -0.84375 C 7.691406 -0.664062 6.859375 -0.804688 6.265625 -1.265625 C 5.671875 -1.734375 5.226562 -2.375 4.9375 -3.1875 C 4.65625 -4.007812 4.445312 -4.835938 4.3125 -5.671875 C 3.976562 -7.710938 3.515625 -9.738281 2.921875 -11.75 C 2.335938 -13.769531 1.738281 -15.800781 1.125 -17.84375 C 0.519531 -19.894531 0.0507812 -21.957031 -0.28125 -24.03125 C -0.519531 -25.445312 -0.660156 -26.878906 -0.703125 -28.328125 Z M -0.703125 -28.328125 "/></g></g></g><g fill="#ffffff" fill-opacity="1"><g transform="translate(67.620178, 203.515185)"><g><path d="M -0.03125 -17.640625 C -0.34375 -19.972656 -0.25 -22.160156 0.25 -24.203125 C 0.757812 -26.242188 1.722656 -27.945312 3.140625 -29.3125 C 4.566406 -30.675781 6.53125 -31.523438 9.03125 -31.859375 C 11.019531 -32.117188 12.816406 -31.835938 14.421875 -31.015625 C 16.035156 -30.203125 17.441406 -29.015625 18.640625 -27.453125 C 19.835938 -25.890625 20.816406 -24.082031 21.578125 -22.03125 C 22.347656 -19.976562 22.878906 -17.851562 23.171875 -15.65625 C 23.359375 -14.25 23.328125 -12.78125 23.078125 -11.25 C 22.828125 -9.726562 22.335938 -8.273438 21.609375 -6.890625 C 20.878906 -5.503906 19.929688 -4.34375 18.765625 -3.40625 C 17.609375 -2.46875 16.195312 -1.894531 14.53125 -1.6875 C 12.914062 -1.46875 11.40625 -1.648438 10 -2.234375 C 8.601562 -2.816406 7.328125 -3.675781 6.171875 -4.8125 C 5.023438 -5.957031 4.015625 -7.257812 3.140625 -8.71875 C 2.265625 -10.175781 1.5625 -11.679688 1.03125 -13.234375 C 0.5 -14.785156 0.144531 -16.253906 -0.03125 -17.640625 Z M 13.40625 -8.15625 C 14.351562 -8.28125 15.117188 -8.671875 15.703125 -9.328125 C 16.285156 -9.984375 16.6875 -10.796875 16.90625 -11.765625 C 17.125 -12.742188 17.164062 -13.753906 17.03125 -14.796875 C 16.9375 -15.515625 16.757812 -16.351562 16.5 -17.3125 C 16.238281 -18.28125 15.882812 -19.265625 15.4375 -20.265625 C 15 -21.265625 14.492188 -22.179688 13.921875 -23.015625 C 13.347656 -23.847656 12.695312 -24.492188 11.96875 -24.953125 C 11.238281 -25.421875 10.460938 -25.601562 9.640625 -25.5 C 8.117188 -25.300781 7.085938 -24.550781 6.546875 -23.25 C 6.003906 -21.957031 5.84375 -20.472656 6.0625 -18.796875 C 6.125 -18.296875 6.28125 -17.601562 6.53125 -16.71875 C 6.789062 -15.832031 7.132812 -14.867188 7.5625 -13.828125 C 7.988281 -12.796875 8.484375 -11.828125 9.046875 -10.921875 C 9.617188 -10.015625 10.269531 -9.296875 11 -8.765625 C 11.738281 -8.242188 12.539062 -8.039062 13.40625 -8.15625 Z M 13.40625 -8.15625 "/></g></g></g><g fill="#ffffff" fill-opacity="1"><g transform="translate(94.234663, 200.034187)"><g><path d="M 7.28125 -14.09375 C 7.195312 -15.570312 7.144531 -17.046875 7.125 -18.515625 C 7.101562 -19.992188 7.023438 -21.414062 6.890625 -22.78125 C 6.804688 -23.625 6.640625 -24.191406 6.390625 -24.484375 C 6.148438 -24.773438 5.707031 -24.890625 5.0625 -24.828125 C 4.582031 -24.773438 4.03125 -24.675781 3.40625 -24.53125 C 2.789062 -24.382812 2.1875 -24.28125 1.59375 -24.21875 C 1 -24.15625 0.390625 -24.160156 -0.234375 -24.234375 C -0.859375 -24.304688 -1.390625 -24.507812 -1.828125 -24.84375 C -2.273438 -25.175781 -2.53125 -25.671875 -2.59375 -26.328125 C -2.65625 -26.929688 -2.46875 -27.457031 -2.03125 -27.90625 C -1.59375 -28.351562 -1.007812 -28.734375 -0.28125 -29.046875 C 0.4375 -29.359375 1.175781 -29.597656 1.9375 -29.765625 C 2.707031 -29.929688 3.394531 -30.046875 4 -30.109375 C 5.695312 -30.273438 7.394531 -30.300781 9.09375 -30.1875 C 10.789062 -30.082031 12.484375 -29.976562 14.171875 -29.875 C 15.859375 -29.769531 17.550781 -29.800781 19.25 -29.96875 C 19.488281 -29.988281 19.734375 -30.007812 19.984375 -30.03125 C 20.242188 -30.0625 20.503906 -30.101562 20.765625 -30.15625 C 21.109375 -30.164062 21.519531 -30.066406 22 -29.859375 C 22.476562 -29.660156 22.925781 -29.382812 23.34375 -29.03125 C 23.757812 -28.675781 23.988281 -28.269531 24.03125 -27.8125 C 24.101562 -27.09375 23.914062 -26.554688 23.46875 -26.203125 C 23.019531 -25.847656 22.492188 -25.601562 21.890625 -25.46875 C 21.285156 -25.332031 20.769531 -25.242188 20.34375 -25.203125 C 19.539062 -25.117188 18.71875 -25.054688 17.875 -25.015625 C 17.03125 -24.984375 16.21875 -24.929688 15.4375 -24.859375 C 14.914062 -24.804688 14.546875 -24.707031 14.328125 -24.5625 C 14.109375 -24.425781 13.976562 -24.179688 13.9375 -23.828125 C 13.90625 -23.472656 13.867188 -22.9375 13.828125 -22.21875 C 13.703125 -20 13.738281 -17.804688 13.9375 -15.640625 C 14.132812 -13.484375 14.3125 -11.3125 14.46875 -9.125 C 14.550781 -7.914062 14.554688 -6.847656 14.484375 -5.921875 C 14.410156 -5.003906 14.191406 -4.265625 13.828125 -3.703125 C 13.460938 -3.140625 12.84375 -2.816406 11.96875 -2.734375 C 10.75 -2.609375 9.765625 -2.800781 9.015625 -3.3125 C 8.273438 -3.820312 7.851562 -4.613281 7.75 -5.6875 C 7.613281 -7.09375 7.535156 -8.503906 7.515625 -9.921875 C 7.492188 -11.335938 7.429688 -12.734375 7.328125 -14.109375 C 7.328125 -14.109375 7.316406 -14.101562 7.296875 -14.09375 C 7.285156 -14.09375 7.28125 -14.09375 7.28125 -14.09375 Z M 7.28125 -14.09375 "/></g></g></g><g fill="#ffffff" fill-opacity="1"><g transform="translate(119.539657, 197.606832)"><g/></g></g><g fill="#ffffff" fill-opacity="1"><g transform="translate(132.715543, 196.575472)"><g><path d="M 9.3125 -30.640625 C 11.019531 -30.734375 12.632812 -30.421875 14.15625 -29.703125 C 15.675781 -28.992188 16.921875 -28 17.890625 -26.71875 C 18.867188 -25.4375 19.398438 -24 19.484375 -22.40625 C 19.546875 -21.207031 19.289062 -20.0625 18.71875 -18.96875 C 18.144531 -17.882812 17.394531 -16.941406 16.46875 -16.140625 C 15.539062 -15.347656 14.59375 -14.734375 13.625 -14.296875 C 12.351562 -13.753906 11.472656 -13.109375 10.984375 -12.359375 C 10.492188 -11.609375 10.285156 -10.628906 10.359375 -9.421875 C 10.410156 -8.347656 10.5 -7.238281 10.625 -6.09375 C 10.75 -4.945312 10.84375 -3.816406 10.90625 -2.703125 C 10.9375 -2.046875 10.785156 -1.535156 10.453125 -1.171875 C 10.128906 -0.804688 9.710938 -0.613281 9.203125 -0.59375 C 8.609375 -0.5625 7.929688 -0.726562 7.171875 -1.09375 C 6.421875 -1.457031 5.765625 -1.976562 5.203125 -2.65625 C 4.640625 -3.332031 4.335938 -4.09375 4.296875 -4.9375 C 4.234375 -6.03125 4.207031 -7.125 4.21875 -8.21875 C 4.238281 -9.3125 4.21875 -10.414062 4.15625 -11.53125 C 4.070312 -13.175781 3.785156 -14.851562 3.296875 -16.5625 C 2.816406 -18.28125 2.53125 -20 2.4375 -21.71875 C 2.351562 -23.238281 2.570312 -24.664062 3.09375 -26 C 3.613281 -27.332031 4.394531 -28.421875 5.4375 -29.265625 C 6.488281 -30.109375 7.78125 -30.566406 9.3125 -30.640625 Z M 9.3125 -30.640625 "/></g></g></g><g fill="#ffffff" fill-opacity="1"><g transform="translate(153.844211, 195.395596)"><g><path d="M 8.96875 -14.703125 C 8.875 -13.804688 8.789062 -13.109375 8.71875 -12.609375 C 8.65625 -12.117188 8.597656 -11.6875 8.546875 -11.3125 C 8.503906 -10.9375 8.445312 -10.5 8.375 -10 C 8.3125 -9.5 8.234375 -8.785156 8.140625 -7.859375 C 8.066406 -7.109375 7.972656 -6.253906 7.859375 -5.296875 C 7.742188 -4.347656 7.566406 -3.425781 7.328125 -2.53125 C 7.097656 -1.644531 6.773438 -0.90625 6.359375 -0.3125 C 5.941406 0.28125 5.375 0.585938 4.65625 0.609375 C 3.71875 0.628906 3.078125 0.390625 2.734375 -0.109375 C 2.398438 -0.609375 2.222656 -1.1875 2.203125 -1.84375 C 2.179688 -2.75 2.203125 -3.707031 2.265625 -4.71875 C 2.328125 -5.726562 2.441406 -6.648438 2.609375 -7.484375 C 3.003906 -9.660156 3.320312 -11.628906 3.5625 -13.390625 C 3.800781 -15.160156 4.015625 -16.859375 4.203125 -18.484375 C 4.398438 -20.109375 4.570312 -21.796875 4.71875 -23.546875 C 4.875 -25.304688 5.046875 -27.265625 5.234375 -29.421875 C 5.367188 -31.140625 5.898438 -32.691406 6.828125 -34.078125 C 7.753906 -35.460938 8.910156 -36.570312 10.296875 -37.40625 C 11.679688 -38.238281 13.15625 -38.671875 14.71875 -38.703125 C 16.90625 -38.753906 18.644531 -38.140625 19.9375 -36.859375 C 21.238281 -35.585938 21.910156 -33.992188 21.953125 -32.078125 C 21.992188 -30.578125 21.851562 -29.050781 21.53125 -27.5 C 21.207031 -25.957031 20.625 -24.535156 19.78125 -23.234375 C 18.945312 -21.941406 17.753906 -20.898438 16.203125 -20.109375 C 15.210938 -19.578125 14.722656 -18.910156 14.734375 -18.109375 C 14.753906 -17.566406 14.976562 -16.957031 15.40625 -16.28125 C 16.25 -14.9375 17.128906 -13.609375 18.046875 -12.296875 C 18.972656 -10.992188 20.023438 -9.820312 21.203125 -8.78125 C 22.378906 -7.738281 23.796875 -6.957031 25.453125 -6.4375 C 25.898438 -6.257812 26.382812 -5.941406 26.90625 -5.484375 C 27.4375 -5.035156 27.894531 -4.582031 28.28125 -4.125 C 28.664062 -3.675781 28.859375 -3.332031 28.859375 -3.09375 C 28.878906 -2.34375 28.660156 -1.734375 28.203125 -1.265625 C 27.753906 -0.804688 27.179688 -0.566406 26.484375 -0.546875 C 26.035156 -0.535156 25.625 -0.625 25.25 -0.8125 C 24.875 -1 24.476562 -1.144531 24.0625 -1.25 C 20.9375 -2.644531 18.25 -4.5 16 -6.8125 C 13.757812 -9.132812 11.703125 -11.773438 9.828125 -14.734375 C 9.734375 -14.703125 9.613281 -14.679688 9.46875 -14.671875 C 9.40625 -14.671875 9.328125 -14.671875 9.234375 -14.671875 C 9.148438 -14.671875 9.0625 -14.679688 8.96875 -14.703125 Z M 16.53125 -31.1875 C 16.507812 -32.175781 16.429688 -32.847656 16.296875 -33.203125 C 16.171875 -33.554688 15.898438 -33.726562 15.484375 -33.71875 C 14.847656 -33.707031 14.164062 -33.453125 13.4375 -32.953125 C 12.71875 -32.453125 12.03125 -31.828125 11.375 -31.078125 C 10.71875 -30.328125 10.179688 -29.546875 9.765625 -28.734375 C 9.359375 -27.929688 9.160156 -27.203125 9.171875 -26.546875 C 9.191406 -25.804688 9.378906 -25.210938 9.734375 -24.765625 C 10.085938 -24.328125 10.535156 -24.113281 11.078125 -24.125 C 11.410156 -24.132812 11.8125 -24.265625 12.28125 -24.515625 C 13.582031 -25.273438 14.601562 -26.191406 15.34375 -27.265625 C 16.082031 -28.347656 16.476562 -29.65625 16.53125 -31.1875 Z M 16.53125 -31.1875 "/></g></g></g><g fill="#ffffff" fill-opacity="1"><g transform="translate(180.531349, 194.739774)"><g><path d="M 2.40625 -17.484375 C 2.414062 -19.828125 2.8125 -21.976562 3.59375 -23.9375 C 4.382812 -25.894531 5.578125 -27.453125 7.171875 -28.609375 C 8.773438 -29.765625 10.835938 -30.332031 13.359375 -30.3125 C 15.367188 -30.289062 17.109375 -29.765625 18.578125 -28.734375 C 20.054688 -27.703125 21.28125 -26.328125 22.25 -24.609375 C 23.226562 -22.890625 23.957031 -20.960938 24.4375 -18.828125 C 24.914062 -16.691406 25.144531 -14.515625 25.125 -12.296875 C 25.113281 -10.878906 24.875 -9.429688 24.40625 -7.953125 C 23.945312 -6.472656 23.257812 -5.097656 22.34375 -3.828125 C 21.4375 -2.566406 20.34375 -1.550781 19.0625 -0.78125 C 17.78125 -0.0195312 16.300781 0.351562 14.625 0.34375 C 13 0.332031 11.53125 -0.0546875 10.21875 -0.828125 C 8.90625 -1.609375 7.757812 -2.640625 6.78125 -3.921875 C 5.800781 -5.203125 4.976562 -6.625 4.3125 -8.1875 C 3.65625 -9.757812 3.164062 -11.347656 2.84375 -12.953125 C 2.53125 -14.566406 2.382812 -16.078125 2.40625 -17.484375 Z M 14.40625 -6.21875 C 15.363281 -6.207031 16.175781 -6.484375 16.84375 -7.046875 C 17.507812 -7.617188 18.019531 -8.375 18.375 -9.3125 C 18.726562 -10.257812 18.910156 -11.257812 18.921875 -12.3125 C 18.921875 -13.03125 18.859375 -13.882812 18.734375 -14.875 C 18.609375 -15.863281 18.398438 -16.882812 18.109375 -17.9375 C 17.816406 -18.988281 17.441406 -19.960938 16.984375 -20.859375 C 16.523438 -21.765625 15.96875 -22.5 15.3125 -23.0625 C 14.65625 -23.625 13.910156 -23.910156 13.078125 -23.921875 C 11.546875 -23.929688 10.421875 -23.332031 9.703125 -22.125 C 8.984375 -20.914062 8.617188 -19.46875 8.609375 -17.78125 C 8.597656 -17.269531 8.65625 -16.554688 8.78125 -15.640625 C 8.914062 -14.734375 9.117188 -13.738281 9.390625 -12.65625 C 9.671875 -11.570312 10.03125 -10.539062 10.46875 -9.5625 C 10.90625 -8.582031 11.453125 -7.78125 12.109375 -7.15625 C 12.765625 -6.539062 13.53125 -6.226562 14.40625 -6.21875 Z M 14.40625 -6.21875 "/></g></g></g><g fill="#ffffff" fill-opacity="1"><g transform="translate(207.41425, 195.012937)"><g><path d="M 11.5625 -27.5 C 11.539062 -27.613281 11.53125 -27.722656 11.53125 -27.828125 C 11.53125 -27.929688 11.535156 -28.03125 11.546875 -28.125 C 11.585938 -29.175781 11.90625 -29.988281 12.5 -30.5625 C 13.101562 -31.144531 13.796875 -31.421875 14.578125 -31.390625 C 15.453125 -31.359375 16.140625 -31.082031 16.640625 -30.5625 C 17.148438 -30.050781 17.53125 -29.398438 17.78125 -28.609375 C 18.039062 -27.816406 18.203125 -26.984375 18.265625 -26.109375 C 18.328125 -25.242188 18.34375 -24.421875 18.3125 -23.640625 C 18.257812 -22.265625 18.113281 -20.875 17.875 -19.46875 C 17.644531 -18.0625 17.503906 -16.65625 17.453125 -15.25 C 17.398438 -13.863281 17.46875 -12.476562 17.65625 -11.09375 C 17.84375 -9.707031 17.910156 -8.328125 17.859375 -6.953125 C 17.804688 -5.660156 17.488281 -4.546875 16.90625 -3.609375 C 16.320312 -2.671875 15.585938 -1.90625 14.703125 -1.3125 C 13.816406 -0.726562 12.90625 -0.304688 11.96875 -0.046875 C 11.039062 0.210938 10.1875 0.328125 9.40625 0.296875 C 7.96875 0.242188 6.648438 -0.265625 5.453125 -1.234375 C 4.265625 -2.210938 3.289062 -3.453125 2.53125 -4.953125 C 1.769531 -6.453125 1.347656 -8.015625 1.265625 -9.640625 C 1.546875 -10.609375 1.992188 -11.335938 2.609375 -11.828125 C 3.222656 -12.316406 3.859375 -12.546875 4.515625 -12.515625 C 5.148438 -12.492188 5.75 -12.238281 6.3125 -11.75 C 6.882812 -11.269531 7.285156 -10.519531 7.515625 -9.5 C 7.847656 -8.050781 8.238281 -7.117188 8.6875 -6.703125 C 9.144531 -6.296875 9.566406 -6.085938 9.953125 -6.078125 C 10.585938 -6.054688 11.023438 -6.285156 11.265625 -6.765625 C 11.503906 -7.253906 11.640625 -7.875 11.671875 -8.625 C 11.703125 -9.644531 11.628906 -10.738281 11.453125 -11.90625 C 11.273438 -13.082031 11.203125 -14.003906 11.234375 -14.671875 C 11.296875 -16.492188 11.429688 -18.21875 11.640625 -19.84375 C 11.847656 -21.476562 11.984375 -23.125 12.046875 -24.78125 C 12.054688 -25.195312 12.03125 -25.609375 11.96875 -26.015625 C 11.914062 -26.421875 11.78125 -26.914062 11.5625 -27.5 Z M 11.5625 -27.5 "/></g></g></g><g fill="#ffffff" fill-opacity="1"><g transform="translate(227.314597, 195.698556)"><g><path d="M 5.8125 -20.578125 C 5.8125 -21.515625 5.820312 -22.457031 5.84375 -23.40625 C 5.863281 -24.351562 5.875 -25.289062 5.875 -26.21875 C 4.769531 -26.445312 3.976562 -26.882812 3.5 -27.53125 C 3.019531 -28.175781 2.804688 -28.859375 2.859375 -29.578125 C 2.898438 -30.296875 3.234375 -30.972656 3.859375 -31.609375 C 4.492188 -32.242188 5.390625 -32.519531 6.546875 -32.4375 L 7.953125 -32.359375 C 8.441406 -32.566406 8.910156 -32.65625 9.359375 -32.625 C 9.835938 -32.59375 10.28125 -32.441406 10.6875 -32.171875 L 20.921875 -31.5 C 21.859375 -31.175781 22.53125 -30.703125 22.9375 -30.078125 C 23.351562 -29.460938 23.539062 -28.84375 23.5 -28.21875 C 23.457031 -27.550781 23.160156 -26.9375 22.609375 -26.375 C 22.054688 -25.8125 21.28125 -25.441406 20.28125 -25.265625 L 13.15625 -25.734375 C 12.695312 -25.617188 12.414062 -25.472656 12.3125 -25.296875 C 12.207031 -25.117188 12.148438 -24.957031 12.140625 -24.8125 C 12.078125 -23.800781 12.066406 -22.828125 12.109375 -21.890625 C 12.148438 -20.953125 12.164062 -20 12.15625 -19.03125 C 12.132812 -18.613281 12.144531 -18.304688 12.1875 -18.109375 C 12.226562 -17.910156 12.398438 -17.800781 12.703125 -17.78125 C 12.796875 -17.769531 12.898438 -17.769531 13.015625 -17.78125 C 13.140625 -17.789062 13.257812 -17.804688 13.375 -17.828125 C 14.507812 -17.960938 15.5 -18.09375 16.34375 -18.21875 C 17.195312 -18.34375 18.222656 -18.382812 19.421875 -18.34375 C 20.367188 -18.007812 21.046875 -17.535156 21.453125 -16.921875 C 21.859375 -16.316406 22.039062 -15.695312 22 -15.0625 C 21.957031 -14.40625 21.660156 -13.789062 21.109375 -13.21875 C 20.554688 -12.65625 19.785156 -12.285156 18.796875 -12.109375 C 17.710938 -12.148438 16.796875 -12.195312 16.046875 -12.25 C 15.296875 -12.300781 14.46875 -12.328125 13.5625 -12.328125 C 13.113281 -12.347656 12.78125 -12.28125 12.5625 -12.125 C 12.34375 -11.976562 12.21875 -11.632812 12.1875 -11.09375 C 12.132812 -10.351562 12.117188 -9.597656 12.140625 -8.828125 C 12.171875 -8.054688 12.15625 -7.238281 12.09375 -6.375 C 12.0625 -5.863281 12.203125 -5.519531 12.515625 -5.34375 C 12.835938 -5.175781 13.210938 -5.078125 13.640625 -5.046875 C 14.984375 -4.960938 16.332031 -5.023438 17.6875 -5.234375 C 19.039062 -5.453125 20.390625 -5.664062 21.734375 -5.875 C 23.085938 -6.082031 24.429688 -6.144531 25.765625 -6.0625 C 26.910156 -5.976562 27.769531 -5.601562 28.34375 -4.9375 C 28.925781 -4.269531 29.191406 -3.5625 29.140625 -2.8125 C 29.097656 -2.15625 28.804688 -1.535156 28.265625 -0.953125 C 27.734375 -0.378906 26.945312 -0.00390625 25.90625 0.171875 C 24.414062 0.160156 22.945312 0.265625 21.5 0.484375 C 20.050781 0.703125 18.566406 0.894531 17.046875 1.0625 C 15.535156 1.238281 13.910156 1.269531 12.171875 1.15625 C 10.953125 1.082031 9.832031 0.828125 8.8125 0.390625 C 7.789062 -0.0351562 6.988281 -0.742188 6.40625 -1.734375 C 5.820312 -2.722656 5.585938 -4.050781 5.703125 -5.71875 C 5.859375 -8.144531 5.929688 -10.582031 5.921875 -13.03125 C 5.921875 -15.488281 5.882812 -18.003906 5.8125 -20.578125 Z M 5.8125 -20.578125 "/></g></g></g><g fill="#ffffff" fill-opacity="1"><g transform="translate(253.946763, 197.481891)"><g><path d="M 16.203125 -29.953125 C 16.828125 -29.890625 17.5625 -29.660156 18.40625 -29.265625 C 19.257812 -28.867188 20.085938 -28.367188 20.890625 -27.765625 C 21.691406 -27.171875 22.34375 -26.5 22.84375 -25.75 C 23.351562 -25.007812 23.570312 -24.269531 23.5 -23.53125 C 23.425781 -22.78125 23.082031 -22.132812 22.46875 -21.59375 C 21.863281 -21.0625 21.117188 -20.84375 20.234375 -20.9375 C 19.535156 -21 18.929688 -21.226562 18.421875 -21.625 C 17.921875 -22.03125 17.445312 -22.425781 17 -22.8125 C 16.5625 -23.195312 16.054688 -23.421875 15.484375 -23.484375 C 14.734375 -23.554688 14.082031 -23.316406 13.53125 -22.765625 C 12.988281 -22.210938 12.515625 -21.5 12.109375 -20.625 C 11.710938 -19.757812 11.378906 -18.851562 11.109375 -17.90625 C 10.835938 -16.957031 10.632812 -16.097656 10.5 -15.328125 C 10.363281 -14.554688 10.28125 -14.003906 10.25 -13.671875 C 10.175781 -12.953125 10.171875 -12.113281 10.234375 -11.15625 C 10.296875 -10.207031 10.425781 -9.28125 10.625 -8.375 C 10.832031 -7.46875 11.125 -6.695312 11.5 -6.0625 C 11.875 -5.4375 12.328125 -5.097656 12.859375 -5.046875 C 13.398438 -4.992188 13.742188 -5.179688 13.890625 -5.609375 C 14.035156 -6.035156 14.128906 -6.578125 14.171875 -7.234375 C 14.222656 -7.890625 14.316406 -8.539062 14.453125 -9.1875 C 14.597656 -9.84375 14.898438 -10.363281 15.359375 -10.75 C 15.816406 -11.144531 16.566406 -11.296875 17.609375 -11.203125 C 18.535156 -11.109375 19.253906 -10.742188 19.765625 -10.109375 C 20.273438 -9.472656 20.492188 -8.769531 20.421875 -8 C 20.335938 -7.070312 20.113281 -6.035156 19.75 -4.890625 C 19.382812 -3.753906 18.878906 -2.664062 18.234375 -1.625 C 17.585938 -0.582031 16.800781 0.242188 15.875 0.859375 C 14.945312 1.484375 13.851562 1.734375 12.59375 1.609375 C 10.476562 1.410156 8.738281 0.566406 7.375 -0.921875 C 6.007812 -2.410156 5.054688 -4.378906 4.515625 -6.828125 C 3.984375 -9.273438 3.863281 -12.023438 4.15625 -15.078125 C 4.320312 -16.804688 4.679688 -18.578125 5.234375 -20.390625 C 5.785156 -22.203125 6.546875 -23.867188 7.515625 -25.390625 C 8.484375 -26.910156 9.6875 -28.097656 11.125 -28.953125 C 12.5625 -29.804688 14.253906 -30.140625 16.203125 -29.953125 Z M 16.203125 -29.953125 "/></g></g></g><g fill="#ffffff" fill-opacity="1"><g transform="translate(275.515105, 199.510806)"><g><path d="M 10.21875 -12.140625 C 10.46875 -13.597656 10.742188 -15.046875 11.046875 -16.484375 C 11.347656 -17.929688 11.582031 -19.335938 11.75 -20.703125 C 11.851562 -21.546875 11.816406 -22.132812 11.640625 -22.46875 C 11.472656 -22.800781 11.0625 -23.007812 10.40625 -23.09375 C 9.9375 -23.15625 9.382812 -23.179688 8.75 -23.171875 C 8.113281 -23.160156 7.492188 -23.191406 6.890625 -23.265625 C 6.296875 -23.335938 5.703125 -23.476562 5.109375 -23.6875 C 4.515625 -23.894531 4.039062 -24.207031 3.6875 -24.625 C 3.332031 -25.050781 3.191406 -25.59375 3.265625 -26.25 C 3.347656 -26.851562 3.648438 -27.328125 4.171875 -27.671875 C 4.691406 -28.015625 5.335938 -28.257812 6.109375 -28.40625 C 6.890625 -28.550781 7.671875 -28.613281 8.453125 -28.59375 C 9.242188 -28.582031 9.941406 -28.539062 10.546875 -28.46875 C 12.234375 -28.257812 13.894531 -27.914062 15.53125 -27.4375 C 17.164062 -26.96875 18.789062 -26.492188 20.40625 -26.015625 C 22.019531 -25.535156 23.675781 -25.191406 25.375 -24.984375 C 25.613281 -24.953125 25.859375 -24.921875 26.109375 -24.890625 C 26.367188 -24.859375 26.632812 -24.84375 26.90625 -24.84375 C 27.226562 -24.769531 27.601562 -24.582031 28.03125 -24.28125 C 28.457031 -23.976562 28.832031 -23.609375 29.15625 -23.171875 C 29.488281 -22.734375 29.628906 -22.289062 29.578125 -21.84375 C 29.484375 -21.125 29.179688 -20.640625 28.671875 -20.390625 C 28.160156 -20.140625 27.59375 -20.015625 26.96875 -20.015625 C 26.351562 -20.015625 25.832031 -20.039062 25.40625 -20.09375 C 24.601562 -20.195312 23.785156 -20.320312 22.953125 -20.46875 C 22.128906 -20.625 21.328125 -20.75 20.546875 -20.84375 C 20.023438 -20.90625 19.640625 -20.890625 19.390625 -20.796875 C 19.148438 -20.710938 18.972656 -20.5 18.859375 -20.15625 C 18.742188 -19.820312 18.582031 -19.3125 18.375 -18.625 C 17.769531 -16.476562 17.328125 -14.328125 17.046875 -12.171875 C 16.765625 -10.023438 16.457031 -7.867188 16.125 -5.703125 C 15.9375 -4.503906 15.707031 -3.460938 15.4375 -2.578125 C 15.175781 -1.691406 14.800781 -1.015625 14.3125 -0.546875 C 13.820312 -0.078125 13.144531 0.101562 12.28125 0 C 11.0625 -0.15625 10.144531 -0.5625 9.53125 -1.21875 C 8.925781 -1.882812 8.691406 -2.757812 8.828125 -3.84375 C 9.003906 -5.238281 9.238281 -6.628906 9.53125 -8.015625 C 9.820312 -9.398438 10.066406 -10.769531 10.265625 -12.125 C 10.265625 -12.125 10.253906 -12.125 10.234375 -12.125 C 10.222656 -12.132812 10.21875 -12.140625 10.21875 -12.140625 Z M 10.21875 -12.140625 "/></g></g></g><g fill="#ffffff" fill-opacity="1"><g transform="translate(300.690525, 202.689888)"><g><path d="M 17.5 -3.703125 C 17.175781 -2.171875 16.503906 -0.753906 15.484375 0.546875 C 14.472656 1.847656 13.265625 2.847656 11.859375 3.546875 C 10.453125 4.242188 9.007812 4.476562 7.53125 4.25 C 6.519531 4.09375 5.703125 3.691406 5.078125 3.046875 C 4.453125 2.398438 4.210938 1.601562 4.359375 0.65625 C 4.460938 -0.0195312 4.816406 -0.757812 5.421875 -1.5625 C 6.035156 -2.363281 6.726562 -2.890625 7.5 -3.140625 C 8.601562 -3.484375 9.445312 -3.878906 10.03125 -4.328125 C 10.625 -4.785156 10.984375 -5.429688 11.109375 -6.265625 C 11.222656 -7.035156 11.101562 -7.914062 10.75 -8.90625 C 10.40625 -9.90625 9.925781 -10.890625 9.3125 -11.859375 C 8.695312 -12.828125 8.035156 -13.691406 7.328125 -14.453125 C 6.378906 -15.660156 5.707031 -16.742188 5.3125 -17.703125 C 4.925781 -18.660156 4.796875 -19.550781 4.921875 -20.375 C 5.085938 -21.476562 5.664062 -22.6875 6.65625 -24 C 7.644531 -25.3125 8.90625 -26.582031 10.4375 -27.8125 C 11.976562 -29.039062 13.703125 -30.085938 15.609375 -30.953125 C 17.515625 -31.816406 19.457031 -32.335938 21.4375 -32.515625 C 21.664062 -32.597656 21.875 -32.675781 22.0625 -32.75 C 22.25 -32.832031 22.507812 -32.847656 22.84375 -32.796875 C 23.613281 -32.679688 24.289062 -32.414062 24.875 -32 C 25.46875 -31.59375 25.925781 -31.144531 26.25 -30.65625 C 26.570312 -30.164062 26.703125 -29.734375 26.640625 -29.359375 C 26.523438 -28.617188 26.148438 -28.128906 25.515625 -27.890625 C 24.890625 -27.648438 24.289062 -27.457031 23.71875 -27.3125 C 22.175781 -26.925781 20.707031 -26.414062 19.3125 -25.78125 C 17.914062 -25.144531 16.503906 -24.539062 15.078125 -23.96875 C 14.234375 -23.613281 13.382812 -23.066406 12.53125 -22.328125 C 11.675781 -21.597656 11.175781 -20.769531 11.03125 -19.84375 C 10.96875 -19.46875 11 -19.054688 11.125 -18.609375 C 11.257812 -18.160156 11.523438 -17.722656 11.921875 -17.296875 C 13.003906 -16.097656 14.019531 -14.773438 14.96875 -13.328125 C 15.914062 -11.878906 16.65625 -10.382812 17.1875 -8.84375 C 17.71875 -7.3125 17.867188 -5.816406 17.640625 -4.359375 C 17.617188 -4.242188 17.59375 -4.132812 17.5625 -4.03125 C 17.53125 -3.9375 17.507812 -3.828125 17.5 -3.703125 Z M 17.5 -3.703125 "/></g></g></g><g fill="#ffffff" fill-opacity="1"><g transform="translate(319.429252, 205.57436)"><g><path d="M 2.84375 -3.3125 C 3.070312 -4.050781 3.441406 -4.722656 3.953125 -5.328125 C 4.460938 -5.929688 5.035156 -6.394531 5.671875 -6.71875 C 6.304688 -7.039062 6.90625 -7.15625 7.46875 -7.0625 C 7.820312 -7 8.1875 -6.769531 8.5625 -6.375 C 8.945312 -5.976562 9.289062 -5.492188 9.59375 -4.921875 C 9.894531 -4.359375 10.128906 -3.796875 10.296875 -3.234375 C 10.460938 -2.671875 10.515625 -2.210938 10.453125 -1.859375 C 10.234375 -1.265625 9.847656 -0.726562 9.296875 -0.25 C 8.742188 0.21875 8.113281 0.554688 7.40625 0.765625 C 6.695312 0.984375 6.003906 1.035156 5.328125 0.921875 C 4.234375 0.722656 3.5 0.238281 3.125 -0.53125 C 2.757812 -1.3125 2.664062 -2.238281 2.84375 -3.3125 Z M 2.84375 -3.3125 "/></g></g></g></svg>