<svg xmlns="http://www.w3.org/2000/svg" xmlns:xlink="http://www.w3.org/1999/xlink" width="500" zoomAndPan="magnify" viewBox="0 0 375 374.999991" height="500" preserveAspectRatio="xMidYMid meet" version="1.0"><path fill="#cd9730" d="M 221.140625 34.234375 C 229.746094 36.023438 237.738281 40.023438 245.730469 43.597656 C 262.515625 50.988281 278.738281 59.503906 292.699219 71.550781 C 311.132812 87.503906 322.414062 108.207031 330.785156 130.796875 C 334.453125 140.679688 336.332031 150.84375 338.449219 161.007812 C 338.449219 174.089844 350.484375 219.074219 313.152344 283.308594 C 303.703125 299.871094 288 310.273438 272.765625 321.050781 C 256.121094 332.8125 238.113281 340.484375 217.707031 343.164062 C 209.996094 344.152344 136.839844 356.199219 89.023438 317.753906 C 79.433594 312.25 73.320312 303.214844 65.84375 295.542969 C 55.828125 285.332031 48.164062 273.898438 42.804688 260.816406 C 36.503906 245.378906 24.234375 208.109375 28.699219 160.253906 C 31.191406 133.242188 41.628906 108.300781 57.097656 85.574219 C 70.875 65.339844 86.859375 48.351562 110.511719 39.644531 C 167.117188 18.800781 211.457031 32.210938 221.140625 34.234375 Z M 317.574219 177.996094 C 317.195312 170.890625 317.667969 163.78125 316.351562 156.628906 C 312.117188 132.960938 302.855469 111.832031 286.496094 94.042969 C 272.90625 79.316406 255.371094 70.515625 237.550781 62.328125 C 226.265625 57.152344 214.886719 52.351562 201.863281 52.070312 C 195.46875 51.925781 158.796875 48.632812 147.417969 50.234375 C 121.042969 54 97.15625 63.738281 79.761719 85.527344 C 70.121094 97.621094 63.070312 110.421875 58.507812 125.621094 C 49.53125 155.359375 47.929688 197.945312 49.859375 209.382812 C 53.714844 232.394531 62.789062 253.664062 73.132812 274.554688 C 79.195312 286.742188 89.730469 294.789062 99.695312 301.285156 C 120.382812 314.789062 144.316406 322.273438 169.1875 324.484375 C 188.417969 326.179688 207.460938 322.929688 226.171875 318.507812 C 244.320312 314.132812 258.332031 302.367188 272.765625 291.542969 C 284.472656 282.742188 295.523438 273.003906 300.929688 259.121094 C 311.132812 233.097656 318.183594 206.277344 317.574219 177.996094 Z M 317.574219 177.996094 " fill-opacity="1" fill-rule="nonzero"/><path fill="#cd9730" d="M 184.089844 272.34375 C 155.222656 272.578125 132.183594 261.757812 114.175781 240.535156 C 103.503906 227.96875 92.785156 215.121094 90.667969 197.851562 C 89.964844 191.96875 87.847656 186.042969 90.011719 180.019531 C 91 177.242188 91.375 174.042969 95.511719 173.902344 C 99.554688 173.757812 101.484375 176.347656 102.707031 179.40625 C 104.820312 184.816406 106.089844 190.558594 108.488281 195.78125 C 114.128906 208.109375 119.632812 220.628906 129.835938 230.085938 C 143.234375 242.464844 158.984375 250.839844 177.320312 250.886719 C 198.054688 250.980469 216.910156 243.6875 233.082031 230.320312 C 240.980469 223.828125 247.46875 216.109375 252.6875 207.171875 C 254.476562 204.109375 256.734375 199.640625 261.761719 201.992188 C 266.136719 204.015625 265.054688 208.015625 264.347656 211.734375 C 258.191406 245.425781 237.21875 261.804688 202.617188 270.792969 C 196.175781 272.578125 189.6875 271.921875 184.089844 272.34375 Z M 184.089844 272.34375 " fill-opacity="1" fill-rule="nonzero"/><path fill="#cd9730" d="M 229.085938 169.101562 C 223.773438 175.875 213.949219 174.371094 209.949219 166.605469 C 205.25 157.429688 207.082031 148.113281 209.902344 139.078125 C 211.644531 133.570312 219.402344 130.984375 225.9375 132.632812 C 232.472656 134.324219 237.832031 143.453125 237.078125 149.289062 C 235.574219 161.101562 233.035156 164.019531 229.085938 169.101562 Z M 229.085938 169.101562 " fill-opacity="1" fill-rule="nonzero"/><path fill="#cd9730" d="M 160.066406 158.371094 C 157.246094 164.628906 148.921875 162.984375 144.410156 160.867188 C 132.9375 155.546875 133.59375 133.570312 142.765625 124.914062 C 147.136719 120.820312 153.15625 119.40625 159.03125 121.949219 C 164.25 124.160156 169.796875 136.726562 160.066406 158.371094 Z M 160.066406 158.371094 " fill-opacity="1" fill-rule="nonzero"/></svg>